<svg xmlns="http://www.w3.org/2000/svg" width="210" height="170" viewBox="0 0 210 170">
  <path d="M105 20 C60 10 25 35 30 75 C10 90 18 130 55 138 C70 160 140 160 155 138 C192 130 200 90 180 75 C185 35 150 10 105 20 Z"
        fill="#f7a8c4" stroke="#d76b95" stroke-width="4"/>
  <path d="M105 22 L105 150" stroke="#d76b95" stroke-width="4" fill="none"/>
  <g fill="none" stroke="#d76b95" stroke-width="4" stroke-linecap="round">
    <path d="M62 50 Q82 60 72 80 Q86 95 72 115"/>
    <path d="M148 50 Q128 60 138 80 Q124 95 138 115"/>
    <path d="M46 95 Q62 100 56 122"/>
    <path d="M164 95 Q148 100 154 122"/>
  </g>
</svg>
