<svg xmlns="http://www.w3.org/2000/svg" width="160" height="185" viewBox="0 0 160 185">
  <path d="M120 165 Q160 150 145 108" fill="none" stroke="#f5a623" stroke-width="16" stroke-linecap="round"/>
  <path d="M42 178 Q34 96 80 96 Q126 96 118 178 Z" fill="#f5a623"/>
  <circle cx="80" cy="70" r="42" fill="#f5a623"/>
  <polygon points="48,42 44,8 80,32" fill="#f5a623"/>
  <polygon points="112,42 116,8 80,32" fill="#f5a623"/>
  <polygon points="54,36 52,18 72,32" fill="#ffd0a0"/>
  <polygon points="106,36 108,18 88,32" fill="#ffd0a0"/>
  <g stroke="#d4881a" stroke-width="3" stroke-linecap="round">
    <line x1="80" y1="30" x2="80" y2="46"/>
    <line x1="66" y1="32" x2="64" y2="47"/>
    <line x1="94" y1="32" x2="96" y2="47"/>
  </g>
  <ellipse cx="66" cy="68" rx="6" ry="9" fill="#222"/>
  <ellipse cx="94" cy="68" rx="6" ry="9" fill="#222"/>
  <polygon points="80,78 74,84 86,84" fill="#e07a7a"/>
  <path d="M80 84 Q72 94 64 88 M80 84 Q88 94 96 88" fill="none" stroke="#222" stroke-width="2"/>
  <g stroke="#222" stroke-width="2">
    <line x1="40" y1="70" x2="16" y2="64"/>
    <line x1="40" y1="78" x2="16" y2="80"/>
    <line x1="120" y1="70" x2="144" y2="64"/>
    <line x1="120" y1="78" x2="144" y2="80"/>
  </g>
</svg>
