<svg xmlns="http://www.w3.org/2000/svg" width="200" height="172" viewBox="0 0 200 172">
  <ellipse cx="100" cy="120" rx="88" ry="50" fill="#9aa0a8"/>
  <ellipse cx="70" cy="164" rx="18" ry="9" fill="#cfd3d8"/>
  <ellipse cx="130" cy="164" rx="18" ry="9" fill="#cfd3d8"/>
  <circle cx="100" cy="70" r="55" fill="#9aa0a8"/>
  <polygon points="55,40 48,6 92,30" fill="#9aa0a8"/>
  <polygon points="145,40 152,6 108,30" fill="#9aa0a8"/>
  <polygon points="62,34 58,16 82,30" fill="#cfd3d8"/>
  <polygon points="138,34 142,16 118,30" fill="#cfd3d8"/>
  <circle cx="64" cy="88" r="20" fill="#9aa0a8"/>
  <circle cx="136" cy="88" r="20" fill="#9aa0a8"/>
  <circle cx="80" cy="70" r="7" fill="#222"/>
  <circle cx="120" cy="70" r="7" fill="#222"/>
  <polygon points="100,82 93,89 107,89" fill="#e07a7a"/>
  <path d="M100 89 Q90 100 80 92 M100 89 Q110 100 120 92" fill="none" stroke="#444" stroke-width="2.5"/>
  <g stroke="#7d838b" stroke-width="3" stroke-linecap="round">
    <line x1="100" y1="40" x2="100" y2="52"/>
    <line x1="86" y1="44" x2="84" y2="55"/>
    <line x1="114" y1="44" x2="116" y2="55"/>
  </g>
</svg>
