<svg xmlns="http://www.w3.org/2000/svg" width="240" height="150" viewBox="0 0 240 150">
  <g fill="none" stroke-width="14">
    <path d="M30 132 A90 90 0 0 1 210 132" stroke="#ff4d4d"/>
    <path d="M44 132 A76 76 0 0 1 196 132" stroke="#ff9f1c"/>
    <path d="M58 132 A62 62 0 0 1 182 132" stroke="#ffd21f"/>
    <path d="M72 132 A48 48 0 0 1 168 132" stroke="#3aa856"/>
    <path d="M86 132 A34 34 0 0 1 154 132" stroke="#2d7bff"/>
    <path d="M100 132 A20 20 0 0 1 140 132" stroke="#8a4dff"/>
  </g>
  <ellipse cx="30" cy="132" rx="30" ry="17" fill="#fff"/>
  <ellipse cx="210" cy="132" rx="30" ry="17" fill="#fff"/>
</svg>
